<svg xmlns="http://www.w3.org/2000/svg" width="21" height="33" viewBox="0 0 21 33" fill="none">
  <path d="M20.1334 23.182C19.7653 22.3566 18.8131 21.9118 17.6807 22.0354C16.6012 22.1535 15.6762 22.6108 14.8962 23.351C13.9229 24.2751 13.7784 25.0889 14.3363 26.2915C13.4208 26.6889 12.6604 26.4007 12.0503 25.4766C11.4898 24.6281 10.9649 23.7401 10.2967 22.9818C9.92421 22.5589 9.52946 22.187 7.96208 21.4008C7.88261 21.2762 7.79954 21.1522 7.70939 21.03C7.35615 20.5502 6.98842 20.0691 6.72059 19.5415C6.1331 18.3837 6.46556 17.3659 7.65214 16.8662C8.32805 16.5818 9.0959 16.5221 9.80766 16.3119C10.1339 16.2155 10.5734 16.0779 10.7057 15.8252C11.2146 14.8536 11.62 13.8275 12.1369 12.6563C8.84968 12.5837 6.66783 13.8305 5.63814 16.9596C4.91212 14.9162 5.41899 13.0217 6.98369 11.6652C8.63472 10.2336 10.6505 9.72975 12.744 9.40886C13.112 9.35221 13.6545 9.21994 13.777 8.96193C15.0042 6.3767 16.1599 3.75797 17.3619 1.09149C17.0944 1.00904 16.9598 0.936974 16.8216 0.928967C13.223 0.723141 9.82158 1.38569 6.75355 3.3484C1.32982 6.81801 0.190413 12.6101 3.94234 17.841C4.78432 19.0145 5.85283 20.0306 6.85496 21.0828C7.94667 22.2291 8.10444 23.3804 7.25743 24.5284C5.76121 23.3659 4.58146 23.3062 2.98234 24.3659C1.70085 25.215 0.767836 26.3565 0.257429 27.8224C-0.278215 29.3599 0.0361767 30.8291 1.06795 31.6058C2.16914 32.4353 3.54552 32.3808 4.91481 31.3947C6.91694 29.9524 8.06468 27.9381 8.65666 25.586C8.77586 25.1124 8.83043 24.6506 8.82689 24.2001L8.84202 24.2422C9.35805 24.1028 9.88386 23.873 11.0203 25.1429C11.2965 25.4516 11.6084 25.7346 11.8801 26.0507C12.6598 26.9585 13.6396 27.436 14.8378 27.4114C16.5345 27.377 18.088 26.9105 19.3855 25.7716C20.2728 24.9928 20.5258 24.0628 20.1334 23.182Z" fill="#CB0000" />
</svg>
